<svg width="119" height="113" viewBox="0 0 119 113" fill="none" xmlns="http://www.w3.org/2000/svg">
<g clip-path="url(#clip0_1_3)">
<path d="M76.6591 45.4773C76.0909 43.6364 75.3068 41.9886 74.3068 40.5341C73.3295 39.0568 72.1477 37.7955 70.7614 36.75C69.3977 35.7045 67.8295 34.9205 66.0568 34.3977C64.2841 33.8523 62.3523 33.5795 60.2614 33.5795C56.5114 33.5795 53.1705 34.5227 50.2386 36.4091C47.3068 38.2955 45 41.0682 43.3182 44.7273C41.6591 48.3636 40.8295 52.7955 40.8295 58.0227C40.8295 63.2955 41.6591 67.7614 43.3182 71.4205C44.9773 75.0795 47.2841 77.8636 50.2386 79.7727C53.1932 81.6591 56.625 82.6023 60.5341 82.6023C64.0795 82.6023 67.1477 81.9205 69.7386 80.5568C72.3523 79.1932 74.3636 77.2614 75.7727 74.7614C77.1818 72.2386 77.8864 69.2841 77.8864 65.8977L80.75 66.3409H61.7955V56.4545H90.125V64.8409C90.125 70.8182 88.8523 75.9886 86.3068 80.3523C83.7614 84.7159 80.2614 88.0795 75.8068 90.4432C71.3523 92.7841 66.2386 93.9545 60.4659 93.9545C54.0341 93.9545 48.3864 92.5114 43.5227 89.625C38.6818 86.7159 34.8977 82.5909 32.1705 77.25C29.4659 71.8864 28.1136 65.5227 28.1136 58.1591C28.1136 52.5227 28.9091 47.4886 30.5 43.0568C32.1136 38.625 34.3636 34.8636 37.25 31.7727C40.1364 28.6591 43.5227 26.2955 47.4091 24.6818C51.2955 23.0455 55.5227 22.2273 60.0909 22.2273C63.9545 22.2273 67.5568 22.7955 70.8977 23.9318C74.2386 25.0455 77.2045 26.6364 79.7955 28.7045C82.4091 30.7727 84.5568 33.2273 86.2386 36.0682C87.9205 38.9091 89.0227 42.0455 89.5455 45.4773H76.6591Z" fill="white"/>
</g>
<defs>
<clipPath id="clip0_1_3">
<rect width="119" height="113" fill="white"/>
</clipPath>
</defs>
</svg>
