<svg width="132" height="20" viewBox="0 0 132 20" fill="none" xmlns="http://www.w3.org/2000/svg">
<g clip-path="url(#clip0_52_11)">
<path d="M13.9698 7.06134C13.4904 6.02027 12.796 5.21814 11.8867 4.65494C10.9774 4.07467 9.91938 3.78454 8.71252 3.78454C7.50566 3.78454 6.41453 4.07467 5.43912 4.65494C4.48025 5.21814 3.71977 6.03734 3.15767 7.11254C2.6121 8.17067 2.33932 9.39947 2.33932 10.7989C2.33932 12.1984 2.6121 13.4272 3.15767 14.4853C3.71977 15.5435 4.48025 16.3627 5.43912 16.9429C6.41453 17.5061 7.50566 17.7877 8.71252 17.7877C10.3988 17.7877 11.7875 17.2672 12.8787 16.2261C13.9698 15.1851 14.6063 13.7771 14.7881 12.0021H7.89417V10.1077H17.1936V11.8997C17.0613 13.3675 16.615 14.7157 15.8545 15.9445C15.094 17.1563 14.0938 18.1205 12.8539 18.8373C11.6139 19.5371 10.2335 19.8869 8.71252 19.8869C7.10889 19.8869 5.64578 19.5029 4.32319 18.7349C3.00061 17.9499 1.95081 16.8661 1.17379 15.4837C0.413309 14.1013 0.0330658 12.5397 0.0330658 10.7989C0.0330658 9.05814 0.413309 7.49654 1.17379 6.11414C1.95081 4.71467 3.00061 3.63094 4.32319 2.86294C5.64578 2.07787 7.10889 1.68534 8.71252 1.68534C10.5476 1.68534 12.1678 2.15467 13.573 3.09334C14.9948 4.03201 16.0281 5.35467 16.6728 7.06134H13.9698ZM32.2294 5.70454V19.7333H29.9728V17.6597C29.5429 18.3765 28.9395 18.9397 28.1625 19.3493C27.402 19.7419 26.5589 19.9381 25.633 19.9381C24.5749 19.9381 23.6243 19.7163 22.7812 19.2725C21.938 18.8117 21.2685 18.1291 20.7725 17.2245C20.2931 16.32 20.0534 15.2192 20.0534 13.9221V5.70454H22.2852V13.6149C22.2852 14.9973 22.6241 16.064 23.302 16.8149C23.9798 17.5488 24.9056 17.9157 26.0794 17.9157C27.2863 17.9157 28.2369 17.5317 28.9313 16.7637C29.6256 15.9957 29.9728 14.8779 29.9728 13.4101V5.70454H32.2294ZM37.2051 3.42614C36.7753 3.42614 36.4116 3.27254 36.114 2.96534C35.8164 2.65814 35.6676 2.28267 35.6676 1.83894C35.6676 1.39521 35.8164 1.01974 36.114 0.712541C36.4116 0.405341 36.7753 0.25174 37.2051 0.25174C37.6185 0.25174 37.9656 0.405341 38.2467 0.712541C38.5443 1.01974 38.693 1.39521 38.693 1.83894C38.693 2.28267 38.5443 2.65814 38.2467 2.96534C37.9656 3.27254 37.6185 3.42614 37.2051 3.42614ZM38.2963 5.70454V19.7333H36.0396V5.70454H38.2963ZM44.399 0.789341V19.7333H42.1424V0.789341H44.399ZM54.9903 5.44854C56.0153 5.44854 56.9411 5.67894 57.7677 6.13974C58.5943 6.58347 59.2391 7.25761 59.702 8.16214C60.1814 9.06667 60.4211 10.1675 60.4211 11.4645V19.7333H58.1893V11.7973C58.1893 10.3979 57.8504 9.33121 57.1725 8.59734C56.4947 7.84641 55.5689 7.47094 54.3951 7.47094C53.2048 7.47094 52.2542 7.85494 51.5433 8.62294C50.8489 9.39094 50.5018 10.5088 50.5018 11.9765V19.7333H48.2451V0.789341H50.5018V7.70134C50.9481 6.98454 51.5598 6.42987 52.3368 6.03734C53.1304 5.64481 54.0149 5.44854 54.9903 5.44854ZM76.5065 12.1813C76.5065 12.6251 76.4817 13.0944 76.4321 13.5893H65.5704C65.6531 14.9717 66.1077 16.0555 66.9343 16.8405C67.7775 17.6085 68.7942 17.9925 69.9845 17.9925C70.9599 17.9925 71.77 17.7621 72.4148 17.3013C73.0761 16.8235 73.539 16.192 73.8035 15.4069H76.2337C75.87 16.7552 75.1426 17.856 74.0515 18.7093C72.9604 19.5456 71.6047 19.9637 69.9845 19.9637C68.695 19.9637 67.5378 19.6651 66.5128 19.0677C65.5043 18.4704 64.7107 17.6256 64.1321 16.5333C63.5535 15.424 63.2642 14.144 63.2642 12.6933C63.2642 11.2427 63.5452 9.97121 64.1073 8.87894C64.6694 7.78667 65.4547 6.95041 66.4632 6.37014C67.4882 5.77281 68.662 5.47414 69.9845 5.47414C71.2741 5.47414 72.4148 5.76427 73.4067 6.34454C74.3987 6.92481 75.1592 7.72694 75.6882 8.75094C76.2337 9.75787 76.5065 10.9013 76.5065 12.1813ZM74.1755 11.6949C74.1755 10.8075 73.9854 10.048 73.6051 9.41654C73.2249 8.76801 72.7041 8.28161 72.0428 7.95734C71.3981 7.61601 70.6789 7.44534 69.8853 7.44534C68.7446 7.44534 67.7692 7.82081 66.9591 8.57174C66.1656 9.32267 65.7109 10.3637 65.5952 11.6949H74.1755ZM81.7421 7.98294C82.1389 7.18081 82.701 6.55787 83.4284 6.11414C84.1723 5.67041 85.0734 5.44854 86.1314 5.44854V7.85494H85.5363C83.0068 7.85494 81.7421 9.27147 81.7421 12.1045V19.7333H79.4854V5.70454H81.7421V7.98294ZM105.078 5.44854C106.137 5.44854 107.079 5.67894 107.905 6.13974C108.732 6.58347 109.385 7.25761 109.865 8.16214C110.344 9.06667 110.584 10.1675 110.584 11.4645V19.7333H108.352V11.7973C108.352 10.3979 108.013 9.33121 107.335 8.59734C106.674 7.84641 105.773 7.47094 104.632 7.47094C103.458 7.47094 102.524 7.86347 101.83 8.64854C101.136 9.41654 100.788 10.5344 100.788 12.0021V19.7333H98.5565V11.7973C98.5565 10.3979 98.2176 9.33121 97.5397 8.59734C96.8784 7.84641 95.9774 7.47094 94.8367 7.47094C93.6629 7.47094 92.7288 7.86347 92.0345 8.64854C91.3401 9.41654 90.9929 10.5344 90.9929 12.0021V19.7333H88.7363V5.70454H90.9929V7.72694C91.4393 6.99307 92.0345 6.42987 92.7784 6.03734C93.5389 5.64481 94.3738 5.44854 95.2831 5.44854C96.4238 5.44854 97.4323 5.71307 98.3085 6.24214C99.1847 6.77121 99.8377 7.54774 100.268 8.57174C100.648 7.58187 101.276 6.81387 102.152 6.26774C103.028 5.72161 104.004 5.44854 105.078 5.44854ZM126.685 12.1813C126.685 12.6251 126.66 13.0944 126.61 13.5893H115.749C115.831 14.9717 116.286 16.0555 117.112 16.8405C117.956 17.6085 118.972 17.9925 120.163 17.9925C121.138 17.9925 121.948 17.7621 122.593 17.3013C123.254 16.8235 123.717 16.192 123.982 15.4069H126.412C126.048 16.7552 125.321 17.856 124.23 18.7093C123.138 19.5456 121.783 19.9637 120.163 19.9637C118.873 19.9637 117.716 19.6651 116.691 19.0677C115.682 18.4704 114.889 17.6256 114.31 16.5333C113.732 15.424 113.442 14.144 113.442 12.6933C113.442 11.2427 113.723 9.97121 114.285 8.87894C114.847 7.78667 115.633 6.95041 116.641 6.37014C117.666 5.77281 118.84 5.47414 120.163 5.47414C121.452 5.47414 122.593 5.76427 123.585 6.34454C124.577 6.92481 125.337 7.72694 125.866 8.75094C126.412 9.75787 126.685 10.9013 126.685 12.1813ZM124.354 11.6949C124.354 10.8075 124.163 10.048 123.783 9.41654C123.403 8.76801 122.882 8.28161 122.221 7.95734C121.576 7.61601 120.857 7.44534 120.063 7.44534C118.923 7.44534 117.947 7.82081 117.137 8.57174C116.344 9.32267 115.889 10.3637 115.773 11.6949H124.354Z" fill="white"/>
<path d="M129.815 20C129.184 20 128.65 19.7815 128.213 19.3444C127.776 18.9074 127.558 18.3732 127.558 17.7419C127.558 17.1106 127.776 16.5765 128.213 16.1394C128.65 15.7024 129.184 15.4839 129.815 15.4839C130.422 15.4839 130.932 15.7024 131.345 16.1394C131.782 16.5765 132 17.1106 132 17.7419C132 18.3732 131.782 18.9074 131.345 19.3444C130.932 19.7815 130.422 20 129.815 20Z" fill="#45A29E"/>
</g>
<defs>
<clipPath id="clip0_52_11">
<rect width="132" height="20" fill="white"/>
</clipPath>
</defs>
</svg>
